<?xml version="1.0" encoding="UTF-8" standalone="no"?><!DOCTYPE svg PUBLIC "-//W3C//DTD SVG 1.1//EN" "http://www.w3.org/Graphics/SVG/1.1/DTD/svg11.dtd"><svg width="100%" height="100%" viewBox="0 0 50 50" version="1.1" xmlns="http://www.w3.org/2000/svg" xmlns:xlink="http://www.w3.org/1999/xlink" xml:space="preserve" xmlns:serif="http://www.serif.com/" style="fill-rule:evenodd;clip-rule:evenodd;stroke-linejoin:round;stroke-miterlimit:2;"><path d="M19.312,31.854l16.621,-12.285c0.815,-0.604 1.979,-0.369 2.369,0.567c2.042,4.935 1.129,10.865 -2.938,14.935c-4.065,4.071 -9.723,4.963 -14.894,2.929l-5.648,2.619c8.102,5.544 17.94,4.173 24.088,-1.985c4.877,-4.883 6.387,-11.54 4.975,-17.542l0.013,0.015c-2.048,-8.817 0.504,-12.342 5.729,-19.548c0.125,-0.171 0.25,-0.342 0.373,-0.517l-6.877,6.885l0,-0.021l-23.817,23.952m-3.425,2.981c-5.817,-5.563 -4.812,-14.169 0.148,-19.133c3.669,-3.673 9.681,-5.173 14.929,-2.969l5.635,-2.604c-1.171,-0.862 -2.453,-1.562 -3.81,-2.083c-6.965,-2.851 -15,-1.231 -20.317,4.096c-5.277,5.283 -6.937,13.408 -4.087,20.342c2.129,5.181 -1.36,8.846 -4.875,12.546c-1.248,1.312 -2.498,2.623 -3.504,4.01l15.875,-14.198" style="fill:#fff;"/></svg>